<svg id="Layer_2" data-name="Layer 2" xmlns="http://www.w3.org/2000/svg" viewBox="0 0 4000 4000"><defs><style>.cls-1{fill:#fff;}.cls-2{fill:none;}.cls-3{fill:#bfbfbf;}</style></defs><path class="cls-1" d="M2107.49,4000Q1053.76,3993.7,0,3987.81v-8.39A11173.49,11173.49,0,0,0,1465.34,3196.2,9323,9323,0,0,1,2107.49,4000Z"/><path class="cls-1" d="M2134.47,0a9458,9458,0,0,1-775,940.66q-92.91,98.9-192.41,199c-122.28,122.68-243.95,238-363.63,346C587,1681.12,376.22,1853.15,177.22,2003.8q-84.81,64.13-166.43,123.07L0,2134.67V0Z"/><path class="cls-1" d="M3979.62,3979.42H3056.94a9701.87,9701.87,0,0,0-924.87-1240.56q178-131.87,358.24-276.92,125.88-101.3,244.76-202.8A11188,11188,0,0,1,3979.62,3979.42Z"/><path class="cls-1" d="M3979.62,0q-112.7,192.11-248.55,403.2A11191.53,11191.53,0,0,1,2490.51,1989.81q-92.31,98.59-189.81,197.4-178,180.72-355.45,344.66c-205.19,190.61-408.59,365-607.59,524.67A11175.23,11175.23,0,0,1,0,3979.42v-.4l5.39-925.27c237.77-149.45,501.3-329.67,778.43-544.46,199.4-154.64,406-327.27,615.58-519.48q174.12-159.74,350.45-338.06,100.7-102.2,195.4-204A9720.92,9720.92,0,0,0,3056.94,0Z"/><path class="cls-2" d="M5.39,3053.75,0,3979V3057.14C1.8,3055.94,3.6,3055,5.39,3053.75Z"/><path class="cls-3" d="M1465.34,3196.2A11173.49,11173.49,0,0,1,0,3979.42a11175.23,11175.23,0,0,0,1337.66-922.88Q1403.3,3126.68,1465.34,3196.2Z"/><path class="cls-3" d="M2735.07,2259.14q-119,101.3-244.76,202.8-180.12,145-358.24,276.92-90.21-102.8-186.82-207,177.14-163.93,355.45-344.66,97.4-98.89,189.81-197.4Q2617.57,2125,2735.07,2259.14Z"/></svg>